<?xml version="1.0" encoding="UTF-8"?>
<svg width="24px" height="24px" viewBox="0 0 24 24" version="1.1" xmlns="http://www.w3.org/2000/svg" xmlns:xlink="http://www.w3.org/1999/xlink">
    <!-- Generator: Sketch 45.2 (43514) - http://www.bohemiancoding.com/sketch -->
    <title>Moodle/mod/assignment</title>
    <desc>Created with Sketch.</desc>
    <defs></defs>
    <g id="Symbols" stroke="none" stroke-width="1" fill="none" fill-rule="evenodd">
        <g id="Moodle/mod/assignment">
            <g id="assignment">
                <rect id="Rectangle-2" x="0" y="0" width="24" height="24"></rect>
            </g>
            <path d="M19,3 L4.99,3 C3.89,3 3.01,3.9 3.01,5 L3,19 C3,20.1 3.89,21 4.99,21 L19,21 C20.1,21 21,20.1 21,19 L21,5 C21,3.9 20.1,3 19,3 L19,3 Z M19,15 L15,15 C15,16.66 13.66,18 12,18 C10.34,18 9,16.66 9,15 L4.99,15 L4.99,5 L19,5 L19,15 L19,15 Z M16,10 L14,10 L14,7 L10,7 L10,10 L8,10 L12,14 L16,10 L16,10 Z" id="Shape" fill="#0087A7"></path>
        </g>
    </g>
</svg>