<?xml version="1.0" encoding="UTF-8"?>
<svg width="24px" height="24px" viewBox="0 0 24 24" version="1.1" xmlns="http://www.w3.org/2000/svg" xmlns:xlink="http://www.w3.org/1999/xlink">
    <!-- Generator: Sketch 45.2 (43514) - http://www.bohemiancoding.com/sketch -->
    <title>Moodle/mod/assign</title>
    <desc>Created with Sketch.</desc>
    <defs></defs>
    <g id="Symbols" stroke="none" stroke-width="1" fill="none" fill-rule="evenodd">
        <g id="Moodle/mod/assign">
            <g id="assign">
                <rect id="Rectangle-2" x="0" y="0" width="24" height="24"></rect>
                <path d="M2,18.8999 L5,18.8999 L5,10.8999 L2,10.8999 L2,18.8999 Z M21,9.8999 C21.55,9.8999 22,10.3499 22,10.8999 C22,11.4499 21.55,11.8999 21,11.8999 L16.529,11.8999 L16.4,13.1099 L14.2,18.0499 C14,18.5499 13.471,18.8999 12.859,18.8999 L8.5,18.8999 C7.7,18.8999 7,18.1699 7,17.3999 L7,10.8999 C7,10.5099 7.16,10.1599 7.43,9.8999 L11.63,4.9999 L12.4,5.7399 C12.6,5.9299 12.721,6.1899 12.721,6.4799 L12.689,6.6999 L11,9.8999 L21,9.8999 L21,9.8999 Z" id="Page-1" fill="#0087A7"></path>
            </g>
        </g>
    </g>
</svg>