<?xml version="1.0" encoding="UTF-8"?>
<svg width="24px" height="24px" viewBox="0 0 24 24" version="1.1" xmlns="http://www.w3.org/2000/svg" xmlns:xlink="http://www.w3.org/1999/xlink">
    <!-- Generator: Sketch 45.2 (43514) - http://www.bohemiancoding.com/sketch -->
    <title>Moodle/mod/chat</title>
    <desc>Created with Sketch.</desc>
    <defs></defs>
    <g id="Symbols" stroke="none" stroke-width="1" fill="none" fill-rule="evenodd">
        <g id="Moodle/mod/chat">
            <g id="chat">
                <rect id="Rectangle-2" x="0" y="0" width="24" height="24"></rect>
            </g>
            <path d="M9,22 C8.44771525,22 8,21.5522847 8,21 L8,18 L4,18 C2.8954305,18 2,17.1045695 2,16 L2,4 C2,2.89 2.9,2 4,2 L20,2 C21.1045695,2 22,2.8954305 22,4 L22,16 C22,17.1045695 21.1045695,18 20,18 L13.9,18 L10.2,21.71 C10,21.9 9.75,22 9.5,22 L9.5,22 L9,22 L9,22 Z M10,16 L10,19.08 L13.08,16 L20,16 L20,4 L4,4 L4,16 L10,16 L10,16 Z M16,14 L8,14 L8,13 C8,11.67 10.67,11 12,11 C13.33,11 16,11.67 16,13 L16,14 L16,14 Z M12,6 C13.1045695,6 14,6.8954305 14,8 C14,9.1045695 13.1045695,10 12,10 C10.8954305,10 10,9.1045695 10,8 C10,6.8954305 10.8954305,6 12,6 Z" id="Shape" fill="#0087A7" fill-rule="nonzero"></path>
        </g>
    </g>
</svg>