<?xml version="1.0" encoding="UTF-8"?>
<svg width="24px" height="24px" viewBox="0 0 24 24" version="1.1" xmlns="http://www.w3.org/2000/svg" xmlns:xlink="http://www.w3.org/1999/xlink">
    <!-- Generator: Sketch 45.2 (43514) - http://www.bohemiancoding.com/sketch -->
    <title>Moodle/mod/feedback</title>
    <desc>Created with Sketch.</desc>
    <defs></defs>
    <g id="Symbols" stroke="none" stroke-width="1" fill="none" fill-rule="evenodd">
        <g id="Moodle/mod/feedback">
            <g id="feedback">
                <rect id="Rectangle-2" x="0" y="0" width="24" height="24"></rect>
                <path d="M21,12 C21,13.38 20.439,14.63 19.54,15.54 L18.12,14.12 C18.66,13.58 19,12.83 19,12 C19,11.17 18.66,10.42 18.12,9.88 L19.54,8.46 C20.439,9.37 21,10.62 21,12 M16,13 L16,17 C16,17.553 15.553,18 15,18 C14.83,18 14.67,18 14.061,17.5 C13.439,17 12.39,16 11.31,15.5 C10.31,15.04 9.28,15 8.26,15 L9.47,18.32 L9.5,18.5 C9.5,18.776 9.276,19 9,19 L7,19 C6.78,19 6.59,18.859 6.53,18.66 L5.19,15 L5,15 C4.448,15 4,14.553 4,14 C2.896,14 2,13.104 2,12 C2,10.896 2.896,10 4,10 C4,9.448 4.448,9 5,9 L8,9 C9.11,9 10.22,9 11.31,8.5 C12.39,8 13.439,7 14.061,6.5 C14.67,6 14.83,6 15,6 C15.553,6 16,6.448 16,7 L16,11 C16.553,11 17,11.448 17,12 C17,12.552 16.553,13 16,13" id="Page-1" fill="#0087A7"></path>
            </g>
        </g>
    </g>
</svg>