<?xml version="1.0" encoding="UTF-8"?>
<svg width="24px" height="24px" viewBox="0 0 24 24" version="1.1" xmlns="http://www.w3.org/2000/svg" xmlns:xlink="http://www.w3.org/1999/xlink">
    <!-- Generator: Sketch 45.2 (43514) - http://www.bohemiancoding.com/sketch -->
    <title>Moodle/mod/forum</title>
    <desc>Created with Sketch.</desc>
    <defs></defs>
    <g id="Symbols" stroke="none" stroke-width="1" fill="none" fill-rule="evenodd">
        <g id="Moodle/mod/forum">
            <g id="forum">
                <rect id="Rectangle-2" x="0" y="0" width="24" height="24"></rect>
                <path d="M21,6 L19,6 L19,15 L6,15 L6,17 C6,17.553 6.448,18 7,18 L18,18 L22,22 L22,7 C22,6.448 21.553,6 21,6 M17,12 L17,3 C17,2.448 16.553,2 16,2 L3,2 C2.448,2 2,2.448 2,3 L2,17 L6,13 L16,13 C16.553,13 17,12.553 17,12" id="Page-1" fill="#0087A7"></path>
            </g>
        </g>
    </g>
</svg>