<?xml version="1.0" encoding="UTF-8"?>
<svg width="24px" height="24px" viewBox="0 0 24 24" version="1.1" xmlns="http://www.w3.org/2000/svg" xmlns:xlink="http://www.w3.org/1999/xlink">
    <!-- Generator: Sketch 45.2 (43514) - http://www.bohemiancoding.com/sketch -->
    <title>Moodle/mod/glossary</title>
    <desc>Created with Sketch.</desc>
    <defs></defs>
    <g id="Symbols" stroke="none" stroke-width="1" fill="none" fill-rule="evenodd">
        <g id="Moodle/mod/glossary">
            <g id="glossary">
                <rect id="Rectangle-2" x="0" y="0" width="24" height="24"></rect>
                <path d="M12,14 L14,14 L14,12 L12,12 L12,14 Z M12,6 L12,10 L14,10 C15.104,10 16,10.896 16,12 L16,14 C16,15.104 15.104,16 14,16 L12,16 C10.896,16 10,15.104 10,14 L10,6 L12,6 L12,6 Z M20,12 L20,14 L22,14 L22,16 L20,16 C18.896,16 18,15.104 18,14 L18,12 C18,10.896 18.896,10 20,10 L22,10 L22,12 L20,12 L20,12 Z M4,14 L6,14 L6,12 L4,12 L4,14 Z M6,10 C7.104,10 8,10.896 8,12 L8,16 L4,16 C2.896,16 2,15.104 2,14 L2,12 C2,10.896 2.896,10 4,10 L6,10 L6,10 Z" id="Page-1" fill="#0087A7"></path>
            </g>
        </g>
    </g>
</svg>