<?xml version="1.0" encoding="UTF-8"?>
<svg width="24px" height="24px" viewBox="0 0 24 24" version="1.1" xmlns="http://www.w3.org/2000/svg" xmlns:xlink="http://www.w3.org/1999/xlink">
    <!-- Generator: Sketch 45.2 (43514) - http://www.bohemiancoding.com/sketch -->
    <title>Moodle/mod/ims</title>
    <desc>Created with Sketch.</desc>
    <defs></defs>
    <g id="Symbols" stroke="none" stroke-width="1" fill="none" fill-rule="evenodd">
        <g id="Moodle/mod/ims">
            <g id="ims">
                <rect id="Rectangle-2" x="0" y="0" width="24" height="24"></rect>
                <path d="M12,2 C6.5,2 2,6.5 2,12 C2,17.5 6.5,22 12,22 C17.5,22 22,17.5 22,12 C22,6.5 17.5,2 12,2 Z M12,3.59375 C13.101563,3.59375 14.15625,3.792969 15.125,4.1875 C15.101563,4.453125 14.894531,4.742188 14.8125,4.90625 C14.710938,5.207031 14.488281,5.613281 14.1875,5.8125 C13.988281,6.011719 13.707031,6.300781 13.40625,6.5 C13.105469,6.699219 12.800781,6.988281 12.5,7.1875 C12.300781,7.289063 12.195313,7.40625 12.09375,7.40625 L12,7.40625 C11.800781,7.207031 11.8125,6.707031 11.8125,6.40625 C11.8125,5.90625 12.101563,5.59375 12,5.09375 C12,4.992188 11.90625,4.1875 11.90625,4.1875 C11.507813,4.085938 11.085938,4.1875 11.1875,3.6875 C11.191406,3.671875 11.210938,3.667969 11.21875,3.65625 C11.480469,3.632813 11.734375,3.59375 12,3.59375 Z M8.15625,5.09375 C8.460938,5.085938 8.75,5.113281 9,5.1875 C9.300781,5.289063 9.613281,5.488281 9.8125,5.6875 C10.011719,5.886719 10.3125,6.199219 10.3125,6.5 C10.3125,6.601563 10.289063,6.585938 10.1875,6.6875 C10.085938,6.789063 10.007813,6.8125 9.90625,6.8125 C9.605469,6.8125 9.292969,6.789063 9.09375,6.6875 L8.6875,6.3125 C8.085938,6.113281 7.195313,7.414063 7.09375,7.8125 C6.992188,8.113281 7,8.804688 7.5,8.90625 C7.800781,8.90625 8.386719,8.292969 8.6875,8.09375 C8.886719,7.992188 8.988281,7.914063 9.1875,7.8125 C9.988281,7.710938 10.613281,8.394531 10.8125,9.09375 C11.113281,9.894531 9.601563,10.488281 9,10.6875 C8.800781,10.789063 8.699219,10.585938 8.5,10.6875 C8,10.886719 7.40625,11.492188 7.40625,12.09375 C7.304688,12.59375 7.289063,13.09375 7.1875,13.59375 C7.085938,13.59375 7,13.601563 7,13.5 L7,13.3125 C7,13.011719 6.894531,12.601563 6.59375,12.5 C6.492188,12.398438 6.507813,12.40625 6.40625,12.40625 C6.105469,12.40625 5.800781,12.113281 5.5,12.3125 C5.300781,12.511719 5.09375,12.792969 5.09375,13.09375 C5.09375,13.195313 5.085938,13.304688 5.1875,13.40625 C5.386719,13.507813 5.613281,13.304688 5.8125,13.40625 C6.011719,13.40625 6,13.585938 6,13.6875 C6.199219,13.988281 6.386719,14.398438 6.6875,14.5 L8.6875,14.5 C8.988281,14.601563 9.488281,14.707031 9.6875,14.90625 C9.789063,15.105469 9.804688,15.300781 9.90625,15.5 C10.40625,16 10.992188,15.988281 11.59375,16.1875 C11.792969,16.289063 11.90625,16.394531 11.90625,16.59375 C12.007813,16.894531 11.914063,17.300781 11.8125,17.5 C11.710938,17.800781 11.605469,18.207031 11.40625,18.40625 C11.207031,18.605469 11.011719,18.710938 10.8125,18.8125 C10.511719,19.011719 10.300781,19.386719 10,19.6875 C10,19.738281 9.894531,19.929688 9.78125,20.09375 C9.019531,19.882813 8.285156,19.5625 7.625,19.15625 C7.601563,19.003906 7.59375,18.855469 7.59375,18.8125 C7.492188,18.511719 7.414063,18.113281 7.3125,17.8125 C7.113281,17.3125 6.6875,16.789063 6.6875,16.1875 C6.6875,15.6875 6.800781,15.210938 6.5,14.8125 C6.101563,14.3125 5.304688,14.300781 4.90625,14 C4.4375,13.6875 3.980469,13.242188 3.65625,12.78125 C3.632813,12.519531 3.59375,12.265625 3.59375,12 C3.59375,9.285156 4.9375,6.851563 6.96875,5.3125 C7.363281,5.195313 7.769531,5.101563 8.15625,5.09375 Z M17.28125,5.5 C19.171875,7.046875 20.40625,9.398438 20.40625,12 C20.40625,14.777344 19.019531,17.277344 16.90625,18.8125 C16.804688,18.492188 16.664063,18.171875 16.59375,17.8125 C16.394531,17.414063 16.289063,16.992188 16.1875,16.59375 C16.085938,16.292969 16.113281,15.800781 15.8125,15.5 C15.710938,15.300781 15.511719,15.289063 15.3125,15.1875 C14.613281,14.886719 13.6875,15.292969 13.1875,14.59375 C12.988281,14.292969 13.09375,13.992188 13.09375,13.59375 C13.292969,13.292969 13.394531,12.988281 13.59375,12.6875 C13.792969,12.1875 14.085938,11.8125 14.1875,11.3125 C14.289063,11.113281 14.210938,10.792969 14.3125,10.59375 C14.414063,10.492188 14.613281,10.414063 14.8125,10.3125 C14.914063,10.210938 15,10.195313 15,10.09375 C15,9.992188 14.90625,10.007813 14.90625,9.90625 C14.90625,9.804688 14.992188,9.601563 15.09375,9.5 C15.59375,9 16.09375,8.59375 16.59375,8.09375 C16.695313,8.09375 16.6875,8 16.6875,8 C16.789063,7.898438 16.695313,7.8125 16.59375,7.8125 C16.394531,7.710938 16.292969,7.695313 16.09375,7.59375 C15.992188,7.59375 15.90625,7.601563 15.90625,7.5 C15.804688,7.398438 15.898438,7.195313 16,7.09375 L16.59375,6.1875 C16.789063,5.992188 16.996094,5.613281 17.28125,5.5 Z" id="Shape" fill="#0087A7" fill-rule="nonzero"></path>
            </g>
        </g>
    </g>
</svg>