<?xml version="1.0" encoding="UTF-8"?>
<svg width="24px" height="24px" viewBox="0 0 24 24" version="1.1" xmlns="http://www.w3.org/2000/svg" xmlns:xlink="http://www.w3.org/1999/xlink">
    <!-- Generator: Sketch 45.2 (43514) - http://www.bohemiancoding.com/sketch -->
    <title>Moodle/mod/label</title>
    <desc>Created with Sketch.</desc>
    <defs></defs>
    <g id="Symbols" stroke="none" stroke-width="1" fill="none" fill-rule="evenodd">
        <g id="Moodle/mod/label">
            <g id="label">
                <rect id="Rectangle-2" x="0" y="0" width="24" height="24"></rect>
                <path d="M21.41,11.58 L12.41,2.58 C12.05,2.22 11.55,2 11,2 L4,2 C2.89,2 2,2.89 2,4 L2,11 C2,11.55 2.22,12.05 2.59,12.41 L11.58,21.41 C11.95,21.769 12.45,22 13,22 C13.55,22 14.05,21.769 14.41,21.41 L21.41,14.41 C21.779,14.05 22,13.55 22,13 C22,12.44 21.769,11.94 21.41,11.58 M5.5,7 C4.671,7 4,6.329 4,5.5 C4,4.671 4.671,4 5.5,4 C6.328,4 7,4.671 7,5.5 C7,6.329 6.328,7 5.5,7" id="Fill-1" fill="#0087A7"></path>
            </g>
        </g>
    </g>
</svg>