<?xml version="1.0" encoding="UTF-8"?>
<svg width="24px" height="24px" viewBox="0 0 24 24" version="1.1" xmlns="http://www.w3.org/2000/svg" xmlns:xlink="http://www.w3.org/1999/xlink">
    <!-- Generator: Sketch 45.2 (43514) - http://www.bohemiancoding.com/sketch -->
    <title>Moodle/mod/lesson</title>
    <desc>Created with Sketch.</desc>
    <defs></defs>
    <g id="Symbols" stroke="none" stroke-width="1" fill="none" fill-rule="evenodd">
        <g id="Moodle/mod/lesson">
            <g id="lesson">
                <rect id="Rectangle-2" x="0" y="0" width="24" height="24"></rect>
            </g>
            <path d="M3,3 L9,3 L9,7 L3,7 L3,3 L3,3 Z M15,10 L21,10 L21,14 L15,14 L15,10 L15,10 Z M15,17 L21,17 L21,21 L15,21 L15,17 L15,17 Z M13,13 L7,13 L7,18 L13,18 L13,20 L7,20 L5,20 L5,9 L7,9 L7,11 L13,11 L13,13 Z" id="Shape" fill="#0087A7" fill-rule="nonzero"></path>
        </g>
    </g>
</svg>