<?xml version="1.0" encoding="UTF-8"?>
<svg width="24px" height="24px" viewBox="0 0 24 24" version="1.1" xmlns="http://www.w3.org/2000/svg" xmlns:xlink="http://www.w3.org/1999/xlink">
    <!-- Generator: Sketch 45.2 (43514) - http://www.bohemiancoding.com/sketch -->
    <title>Moodle/mod/lti</title>
    <desc>Created with Sketch.</desc>
    <defs></defs>
    <g id="Symbols" stroke="none" stroke-width="1" fill="none" fill-rule="evenodd">
        <g id="Moodle/mod/lti">
            <g id="lti">
                <rect id="Rectangle-2" x="0" y="0" width="24" height="24"></rect>
                <path d="M20.5,11 L19,11 L19,7 C19,5.89 18.1,5 17,5 L13,5 L13,3.5 C13,2.119 11.881,1 10.5,1 C9.119,1 8,2.119 8,3.5 L8,5 L4,5 C2.896,5 2,5.896 2,7 L2,10.8 L3.5,10.8 C5,10.8 6.2,12 6.2,13.5 C6.2,15 5,16.2 3.5,16.2 L2,16.2 L2,20 C2,21.104 2.896,22 4,22 L7.8,22 L7.8,20.5 C7.8,19 9,17.8 10.5,17.8 C12,17.8 13.2,19 13.2,20.5 L13.2,22 L17,22 C18.104,22 19,21.104 19,20 L19,16 L20.5,16 C21.881,16 23,14.881 23,13.5 C23,12.119 21.881,11 20.5,11" id="Page-1" fill="#0087A7"></path>
            </g>
        </g>
    </g>
</svg>