<?xml version="1.0" encoding="UTF-8"?>
<svg width="24px" height="24px" viewBox="0 0 24 24" version="1.1" xmlns="http://www.w3.org/2000/svg" xmlns:xlink="http://www.w3.org/1999/xlink">
    <!-- Generator: Sketch 45.2 (43514) - http://www.bohemiancoding.com/sketch -->
    <title>Moodle/mod/quiz</title>
    <desc>Created with Sketch.</desc>
    <defs></defs>
    <g id="Symbols" stroke="none" stroke-width="1" fill="none" fill-rule="evenodd">
        <g id="Moodle/mod/quiz">
            <g id="quiz">
                <rect id="Rectangle-2" x="0" y="0" width="24" height="24"></rect>
                <path d="M13,14 L20,7 L18.59,5.59 L13,11.17 L9.91,8.09 L8.5,9.5 L13,14 Z M16,20 L16,22 L4,22 C2.896,22 2,21.104 2,20 L2,7 L4,7 L4,20 L16,20 L16,20 Z M22,16 C22,17.104 21.104,18 20,18 L8,18 C6.89,18 6,17.1 6,16 L6,4 C6,2.89 6.89,2 8,2 L20,2 C21.104,2 22,2.896 22,4 L22,16 L22,16 Z" id="Page-1" fill="#0087A7"></path>
            </g>
        </g>
    </g>
</svg>