<?xml version="1.0" encoding="UTF-8"?>
<svg width="24px" height="24px" viewBox="0 0 24 24" version="1.1" xmlns="http://www.w3.org/2000/svg" xmlns:xlink="http://www.w3.org/1999/xlink">
    <!-- Generator: Sketch 45.2 (43514) - http://www.bohemiancoding.com/sketch -->
    <title>Moodle/mod/resource</title>
    <desc>Created with Sketch.</desc>
    <defs></defs>
    <g id="Symbols" stroke="none" stroke-width="1" fill="none" fill-rule="evenodd">
        <g id="Moodle/mod/resource">
            <g id="resource">
                <rect id="Rectangle-2" x="0" y="0" width="24" height="24"></rect>
                <path d="M13,10 L21,10 L21,8 L13,8 L13,10 Z M3,10 L11,10 L11,8 L3,8 L3,10 Z M15,4 C14.447,4 14,4.448 14,5 C14,5.552 14.447,6 15,6 C15.553,6 16,5.552 16,5 C16,4.448 15.553,4 15,4 L15,4 Z M9,4 C8.448,4 8,4.448 8,5 C8,5.552 8.448,6 9,6 C9.552,6 10,5.552 10,5 C10,4.448 9.552,4 9,4 L9,4 Z M13,20 L20,20 L20,12 L13,12 L13,20 Z M4,20 L11,20 L11,12 L4,12 L4,20 Z M22,12 L22,20 C22,21.104 21.104,22 20,22 L4,22 C2.896,22 2,21.104 2,20 L2,12 C1.448,12 1,11.552 1,11 L1,8 C1,6.896 1.896,6 3,6 L6.17,6 C6.06,5.69 6,5.35 6,5 C6,3.343 7.343,2 9,2 C10,2 10.88,2.5 11.43,3.24 L11.43,3.23 L12,4 L12.57,3.23 L12.57,3.24 C13.12,2.5 14,2 15,2 C16.656,2 18,3.343 18,5 C18,5.35 17.939,5.69 17.83,6 L21,6 C22.104,6 23,6.896 23,8 L23,11 C23,11.552 22.553,12 22,12 L22,12 Z" id="Page-1" fill="#0087A7"></path>
            </g>
        </g>
    </g>
</svg>