<?xml version="1.0" encoding="UTF-8"?>
<svg width="24px" height="24px" viewBox="0 0 24 24" version="1.1" xmlns="http://www.w3.org/2000/svg" xmlns:xlink="http://www.w3.org/1999/xlink">
    <!-- Generator: Sketch 45.2 (43514) - http://www.bohemiancoding.com/sketch -->
    <title>Moodle/mod/survey</title>
    <desc>Created with Sketch.</desc>
    <defs></defs>
    <g id="Symbols" stroke="none" stroke-width="1" fill="none" fill-rule="evenodd">
        <g id="Moodle/mod/survey">
            <g id="survey">
                <rect id="Rectangle-2" x="0" y="0" width="24" height="24"></rect>
                <path d="M12,0 C10.699219,0 9.585938,0.800781 9.1875,2 L5,2 C3.898438,2 3,2.898438 3,4 L3,20 C3,21.101563 3.898438,22 5,22 L19,22 C20.101563,22 21,21.101563 21,20 L21,4 C21,2.898438 20.101563,2 19,2 L14.8125,2 C14.414063,0.800781 13.300781,0 12,0 Z M12,2 C12.601563,2 13,2.398438 13,3 C13,3.601563 12.601563,4 12,4 C11.398438,4 11,3.601563 11,3 C11,2.398438 11.398438,2 12,2 Z M5,4 L7,4 L7,6 L17,6 L17,4 L19,4 L19,20 L5,20 L5,4 Z M7,8 L7,12 L11,12 L11,8 L7,8 Z M8,9 L10,9 L10,11 L8,11 L8,9 Z M13,9 L13,11 L17,11 L17,9 L13,9 Z M7,14 L7,18 L11,18 L11,14 L7,14 Z M13,15 L13,17 L17,17 L17,15 L13,15 Z" id="Shape" fill="#0087A7" fill-rule="nonzero"></path>
            </g>
        </g>
    </g>
</svg>