<?xml version="1.0" encoding="UTF-8"?>
<svg width="24px" height="24px" viewBox="0 0 24 24" version="1.1" xmlns="http://www.w3.org/2000/svg" xmlns:xlink="http://www.w3.org/1999/xlink">
    <!-- Generator: Sketch 45.2 (43514) - http://www.bohemiancoding.com/sketch -->
    <title>Moodle/mod/url</title>
    <desc>Created with Sketch.</desc>
    <defs></defs>
    <g id="Symbols" stroke="none" stroke-width="1" fill="none" fill-rule="evenodd">
        <g id="Moodle/mod/url">
            <g id="url">
                <rect id="Rectangle-2" x="0" y="0" width="24" height="24"></rect>
                <path d="M13.6525,9.4125 C14.0425,9.0225 14.6815,9.0225 15.0725,9.4125 C17.0215,11.3625 17.0215,14.5325 15.0725,16.4825 L11.5325,20.0225 C9.5825,21.9735 6.4125,21.9735 4.4625,20.0225 C2.5125,18.0725 2.5125,14.9025 4.4625,12.9525 L5.9525,11.4625 C5.9425,12.2825 6.0725,13.1015 6.3525,13.8925 L5.8825,14.3625 C4.7025,15.5325 4.7025,17.4325 5.8825,18.6015 C7.0525,19.7825 8.9525,19.7825 10.1225,18.6015 L13.6525,15.0725 C14.8325,13.9025 14.8325,12.0025 13.6525,10.8325 C13.2425,10.4425 13.2425,9.8025 13.6525,9.4125 M10.8325,13.6525 C11.2425,14.0425 11.2425,14.6825 10.8325,15.0725 C10.4425,15.4625 9.8025,15.4625 9.4125,15.0725 C7.4625,13.1225 7.4625,9.9525 9.4125,8.0025 L12.9525,4.4625 C14.9025,2.5125 18.0725,2.5125 20.0215,4.4625 C21.9725,6.4125 21.9725,9.5825 20.0215,11.5325 L18.5325,13.0225 C18.5425,12.2025 18.4125,11.3825 18.1325,10.6025 L18.6015,10.1225 C19.7825,8.9525 19.7825,7.0525 18.6015,5.8825 C17.4315,4.7025 15.5325,4.7025 14.3625,5.8825 L10.8325,9.4125 C9.6525,10.5825 9.6525,12.4825 10.8325,13.6525" id="Fill-1" fill="#0087A7"></path>
            </g>
        </g>
    </g>
</svg>