<?xml version="1.0" encoding="UTF-8"?>
<svg width="24px" height="24px" viewBox="0 0 24 24" version="1.1" xmlns="http://www.w3.org/2000/svg" xmlns:xlink="http://www.w3.org/1999/xlink">
    <!-- Generator: Sketch 45.2 (43514) - http://www.bohemiancoding.com/sketch -->
    <title>Moodle/mod/wiki</title>
    <desc>Created with Sketch.</desc>
    <defs></defs>
    <g id="Symbols" stroke="none" stroke-width="1" fill="none" fill-rule="evenodd">
        <g id="Moodle/mod/wiki">
            <g id="wiki">
                <rect id="Rectangle-2" x="0" y="0" width="24" height="24"></rect>
                <path d="M9,21 C9,21.553 9.448,22 10,22 L14,22 C14.553,22 15,21.553 15,21 L15,20 L9,20 L9,21 Z M12,2 C8.134,2 5,5.134 5,9 C5,11.38 6.19,13.47 8,14.74 L8,17 C8,17.553 8.448,18 9,18 L15,18 C15.553,18 16,17.553 16,17 L16,14.74 C17.811,13.47 19,11.38 19,9 C19,5.134 15.866,2 12,2 L12,2 Z" id="Page-1" fill="#0087A7"></path>
            </g>
        </g>
    </g>
</svg>