<?xml version="1.0" encoding="UTF-8"?>
<svg width="18px" height="18px" viewBox="0 0 18 18" version="1.1" xmlns="http://www.w3.org/2000/svg" xmlns:xlink="http://www.w3.org/1999/xlink">
    <!-- Generator: Sketch 45.2 (43514) - http://www.bohemiancoding.com/sketch -->
    <title>completion-auto-pass</title>
    <desc>Created with Sketch.</desc>
    <defs></defs>
    <g id="Symbols" stroke="none" stroke-width="1" fill="none" fill-rule="evenodd">
        <g id="completion-auto-pass">
            <g>
                <rect id="Rectangle-2" x="0" y="0" width="18" height="18"></rect>
                <path d="M0,14 L0,12 L2,12 L2,14 L0,14 Z M2,0 L2,2 L0,2 C0,0.89 0.89,0 2,0 Z M0,10 L0,8 L2,8 L2,10 L0,10 Z M0,6 L0,4 L2,4 L2,6 L0,6 Z M4,2 L4,0 L6,0 L6,2 L4,2 Z M12,2 L12,0 L14,0 L14,2 L12,2 Z M8,2 L8,0 L10,0 L10,2 L8,2 Z M8,18 L8,16 L10,16 L10,18 L8,18 Z M16,10 L16,8 L18,8 L18,10 L16,10 Z M0,16.001 L2,16.001 L2,18 C0.9,18 0,17.101 0,16.001 Z M16,14 L16,12.001 L18,12.001 L18,14 L16,14 Z M16,16.001 L18,16.001 C17.999,17.101 17.1,18 16,18 L16,16.001 Z M4,18 L4,16 L6,16 L6,18 L4,18 Z M12,18 L12,16 L14,16 L14,18 L12,18 Z" id="Combined-Shape" fill="#999999"></path>
                <polygon id="Fill-1" fill="#00AD45" points="4.91 7.08 3.5 8.5 8 13 18 3 16.59 1.58 8 10.17"></polygon>
            </g>
        </g>
    </g>
</svg>